<svg version="1.2" xmlns="http://www.w3.org/2000/svg" viewBox="0 0 194 36" width="194" height="36">
	<style>.a{fill:#fff}.b{fill:#fc3665}</style>
	<path fill-rule="evenodd" class="a" d="m192.4 21.2q-0.5 0.8-1.2 1.2-0.8 0.4-1.6 0.4-0.9 0-1.6-0.4-0.8-0.4-1.2-1.2-0.4-0.7-0.4-1.6 0-0.8 0.4-1.6 0.4-0.8 1.2-1.2 0.8-0.4 1.6-0.4 0.8 0 1.6 0.4 0.7 0.4 1.2 1.2 0.4 0.8 0.4 1.6 0 0.9-0.4 1.6zm-0.5-2.9q-0.4-0.7-1-1-0.7-0.4-1.3-0.4-0.7 0-1.3 0.4-0.7 0.3-1 1-0.4 0.6-0.4 1.3 0 0.7 0.4 1.4 0.3 0.6 0.9 0.9 0.7 0.4 1.4 0.4 0.7 0 1.3-0.4 0.6-0.3 1-0.9 0.4-0.7 0.4-1.4 0-0.7-0.4-1.3zm-1.3 2.2q0.2 0.7 0.3 0.9h-0.5c0-0.1-0.1-0.4-0.2-0.8-0.1-0.5-0.3-0.7-0.7-0.7h-0.5v1.5h-0.4v-3.5c0.2 0 0.5-0.1 0.8-0.1 0.5 0 0.9 0.1 1.1 0.3 0.2 0.2 0.3 0.4 0.3 0.7 0 0.5-0.3 0.8-0.7 0.9q0.4 0.2 0.5 0.8zm-0.3-1.7c0-0.4-0.3-0.6-0.8-0.6q-0.4 0-0.5 0v1.3h0.5c0.5 0 0.8-0.2 0.8-0.7z"/>
	<path fill-rule="evenodd" class="a" d="m12.1 13.5c2.3 0 4.4 0.7 6.1 1.9 0.4 0.2 0.6 0.7 0.6 1.1 0 0.8-0.7 1.5-1.4 1.5q-0.5 0-0.9-0.3c-1.2-0.9-2.7-1.3-4.4-1.3-4.2 0-7.6 3.3-7.6 7.5 0 4.1 3.4 7.5 7.6 7.5 1.7 0 3.2-0.5 4.4-1.4q0.4-0.2 0.9-0.2c0.7 0 1.4 0.6 1.4 1.4 0 0.5-0.2 0.9-0.6 1.2-1.7 1.2-3.8 1.9-6.1 1.9-5.8 0-10.5-4.7-10.5-10.4 0-5.8 4.7-10.4 10.5-10.4zm56 0.4q0.2 0 0.3 0.1h11.5c0.6 0 1.2 0.6 1.2 1.4 0 0.8-0.6 1.4-1.2 1.4h-10.3v5.6h7.1c0.8 0 1.5 0.6 1.5 1.4 0 0.8-0.7 1.4-1.5 1.4h-7.1v5.7h10.3c0.6 0 1.2 0.6 1.2 1.4 0 0.8-0.6 1.4-1.2 1.4h-11.7-0.1-0.1-0.1c-0.7 0-1.2-0.6-1.2-1.3v-17.1q0-0.1 0-0.2c0.1-0.7 0.6-1.1 1.1-1.1q0.2-0.1 0.3-0.1zm45.4 0c0.5 0 1.1 0.3 1.3 0.8l8.1 17c0.3 0.7 0 1.6-0.7 1.9-0.7 0.3-1.6 0-1.9-0.7l-1.4-2.9h-10.8l-1.4 2.9c-0.3 0.7-1.2 1-1.9 0.7-0.7-0.3-1-1.2-0.7-1.9l8.1-17c0.2-0.5 0.7-0.8 1.3-0.8zm-17.4 0c3.5 0 6.2 2.8 6.2 6.2 0 2.9-2 5.3-4.8 5.9l4.3 5.5c0.5 0.6 0.4 1.5-0.3 1.9-0.6 0.5-1.5 0.4-2-0.2l-5.5-7h-7v6.1c0 0.8-0.6 1.4-1.4 1.4-0.8 0-1.5-0.6-1.5-1.4v-17c0-0.7 0.7-1.4 1.5-1.4h10.5zm-65.1 0c0.6 0 1.1 0.3 1.3 0.8l8.1 17c0.3 0.7 0 1.6-0.7 1.9-0.7 0.3-1.6 0-1.9-0.7l-1.4-2.9h-10.7l-1.4 2.9c-0.4 0.7-1.2 1-1.9 0.7-0.8-0.3-1.1-1.2-0.7-1.9l8-17c0.3-0.5 0.8-0.8 1.3-0.8zm13.1 0c0.4 0 0.8 0.2 1.1 0.4l8 8.1 8.1-8.1c0.3-0.2 0.6-0.4 1-0.4 0.8 0 1.5 0.7 1.5 1.4v17c0 0.8-0.7 1.4-1.5 1.4-0.8 0-1.4-0.6-1.4-1.4v-13.5l-6.7 6.6c-0.2 0.3-0.6 0.4-1 0.4-0.3 0-0.7-0.1-1-0.4l-6.6-6.6v13.5c0 0.8-0.7 1.4-1.5 1.4-0.8 0-1.4-0.6-1.4-1.4v-17c0-0.7 0.6-1.4 1.4-1.4zm-13.1 4.7l-4 8.5h8zm82.5 0l-4 8.5h8zm-17.3-1.8h-9.1v6.6h9.1c1.8 0 3.3-1.5 3.3-3.3 0-1.8-1.5-3.3-3.3-3.3z"/>
	<path fill-rule="evenodd" class="b" d="m172.9 31.4v-12.8h-3.4c-1.3 0-2.4-1-2.4-2.3 0-1.3 1.1-2.4 2.4-2.4h11.5c1.3 0 2.4 1.1 2.4 2.4 0 1.3-1.1 2.3-2.4 2.3h-3.3v12.8c0 1.3-1.1 2.3-2.4 2.3-1.4 0-2.4-1-2.4-2.3zm-25-13.3c0.3-0.7-0.1-1.7-0.2-1.8-0.8-2.4-0.1-6.3 2.9-8.1 0.8-0.4 2.3-0.6 1.5 1-0.5 0.9-0.5 2.6 0.9 3.5 0.5 0.4 1.5 0.6 2.4 0.4 0.6-0.2 1.3-0.7 1.6-1.2 0.7-1.1 0.1-2.8-0.1-3.2-0.4-1.1-0.9-1.9-0.7-3.6 0.2-2 1.9-3.2 2.3-2.7 0.4 0.5-0.2 1.3 0.9 3.3 1.6 3 7.1 3.4 5.3 11 0 0.1-0.1 0.5 0.1 0.7 1.4 1.8 2.3 4 2.3 6.5 0 5.7-4.7 10.3-10.5 10.3-5.8 0-10.5-4.6-10.5-10.3 0-2.2 0.6-4.1 1.7-5.7q0-0.1 0.1-0.1zm13.5 7.6q0.5-1 0.5-2.2 0-0.9-0.5-1.8-0.4-0.9-1.1-1.6-0.7-0.6-1.7-1-0.9-0.4-2-0.4-1.1 0-2 0.4-1 0.4-1.7 1-0.7 0.7-1.2 1.6-0.4 0.9-0.4 1.8 0 1.2 0.4 2.2 0.5 1 1.2 1.8 0.7 0.7 1.7 1.1 0.9 0.4 2 0.4 1.1 0 2-0.4 1-0.4 1.7-1.1 0.7-0.8 1.1-1.8zm-19.5-11.8c1.3 0 2.4 1.1 2.4 2.4v15.1c0 1.3-1.1 2.3-2.4 2.3-1.3 0-2.4-1-2.4-2.3v-5.2h-7.8v5.2c0 1.3-1.1 2.3-2.4 2.3-1.4 0-2.4-1-2.4-2.3v-15.1c0-1.3 1-2.4 2.4-2.4 1.3 0 2.4 1.1 2.4 2.4v5.2h7.8v-5.2c0-1.3 1.1-2.4 2.4-2.4z"/>
</svg>
