<svg version="1.2" xmlns="http://www.w3.org/2000/svg" viewBox="0 0 165 47" width="165" height="47">
	<style>.a{fill:#fff}.b{fill:#fe656b}</style>
	<path fill-rule="evenodd" class="a" d="m154.1 24.5q-0.1 0.1-0.1 0.2c-0.1 0.2-0.4 0.3-0.6 0.3-0.4 0-1.1-0.1-1.6-0.1q-1 0-1.9 0.3-0.9 0.2-1.6 0.6v10.1c0 0.2-0.2 0.5-0.4 0.5q-0.1 0.1-0.3 0.1-0.4 0.1-1 0.1-1 0-1.5-0.4-0.5-0.4-0.5-1.4v-9.3q0-0.8 0.3-1.3 0.4-0.6 1.1-1 0.9-0.6 2.2-0.9 1.4-0.4 2.9-0.4c1.9 0 3.1 0.6 3.1 1.8q0 0.4-0.1 0.8zm-13.1 5.4l-8.2 1.1q0.4 1.6 1.6 2.2 1.1 0.7 2.7 0.7 1.3 0 2.3-0.4 0.8-0.2 1.4-0.6c0.2-0.1 0.5 0 0.7 0.1q0.2 0.2 0.3 0.4 0.3 0.4 0.3 0.9 0 0.6-0.4 1-0.4 0.5-1.1 0.8-0.7 0.4-1.7 0.5-0.9 0.2-2 0.2-1.8 0-3.2-0.5-1.4-0.4-2.4-1.4-1.1-1-1.6-2.4-0.6-1.4-0.6-3.3 0-1.8 0.6-3.2 0.5-1.3 1.5-2.3 0.9-0.9 2.2-1.3 1.3-0.5 2.7-0.5 1.4 0 2.7 0.5 1.2 0.5 2 1.3 0.9 0.8 1.4 1.9 0.5 1.2 0.5 2.5 0 0.8-0.5 1.2-0.4 0.4-1.2 0.6zm-2.7-4.3q-0.8-0.9-2.2-0.9-1.5 0-2.4 1-1 1-1.1 2.7l6.5-0.9q-0.1-1.1-0.8-1.9zm-10.8 1.2q-0.4 1.1-0.8 2.4-0.5 1.3-1 2.6-0.5 1.3-1 2.4-0.5 1.1-0.9 1.9-0.3 0.2-0.9 0.4-0.6 0.1-1.3 0.1-0.9 0-1.5-0.2-0.6-0.2-0.9-0.7-0.2-0.5-0.6-1.4-0.4-0.9-0.8-2-0.5-1.2-1-2.4-0.4-1.3-0.9-2.5-0.4-1.3-0.7-2.4-0.4-1-0.6-1.8c0-0.2 0-0.4 0.2-0.6q0.3-0.1 0.6-0.3 0.5-0.2 1.1-0.2 0.8 0 1.3 0.3 0.5 0.4 0.7 1.3l1.5 4.9q0.2 0.6 0.4 1.2 0.2 0.7 0.4 1.3 0.2 0.7 0.4 1.2 0.2 0.6 0.4 1h0.1q0.8-2.6 1.7-5.4 0.7-2.6 1.3-5.2 0.1-0.2 0.4-0.4 0.2-0.1 0.5-0.1 0.5-0.1 0.9-0.1 0.8 0 1.3 0.3 0.5 0.4 0.5 1.2 0 0.4-0.2 1.2-0.2 0.9-0.6 2zm-15.3 3.1l-8.2 1.1q0.4 1.6 1.6 2.2 1.1 0.7 2.7 0.7 1.3 0 2.3-0.4 0.9-0.2 1.4-0.6c0.3-0.1 0.5 0 0.7 0.1q0.2 0.2 0.3 0.4 0.3 0.4 0.3 0.9 0 0.6-0.4 1-0.4 0.5-1.1 0.8-0.7 0.4-1.6 0.5-1 0.2-2.1 0.2-1.7 0-3.2-0.5-1.4-0.4-2.4-1.4-1-1-1.6-2.4-0.6-1.4-0.6-3.3 0-1.8 0.6-3.2 0.5-1.3 1.5-2.3 1-0.9 2.2-1.3 1.3-0.5 2.7-0.5 1.5 0 2.7 0.5 1.2 0.5 2 1.3 0.9 0.8 1.4 1.9 0.5 1.2 0.5 2.5 0 0.8-0.5 1.2-0.4 0.4-1.2 0.6zm-2.7-4.3q-0.7-0.9-2.2-0.9-1.4 0-2.4 1-1 1-1.1 2.7l6.6-0.9q-0.2-1.1-0.9-1.9zm-11-4h-7.2v4.7h6.8c0.2 0 0.4 0.1 0.5 0.3q0 0.1 0.1 0.3 0.1 0.4 0.1 0.8 0 0.8-0.4 1.2-0.3 0.4-1 0.4h-6v6.5c0 0.3-0.3 0.6-0.6 0.7q-0.1 0-0.2 0-0.5 0.1-1 0.1-1.1 0-1.6-0.4-0.5-0.5-0.5-1.4v-14.3q0-1 0.6-1.5 0.5-0.6 1.5-0.6h9.5c0.2 0 0.4 0.2 0.5 0.4q0 0.1 0.1 0.3 0.1 0.4 0.1 0.8 0 0.8-0.4 1.2-0.3 0.5-0.9 0.5zm-15.2 14.9q-0.6 0.1-1.4 0.1-1.4 0-2.1-0.5-0.6-0.5-0.6-1.9v-6.9q0-1-0.6-1.4-0.5-0.4-1.4-0.4-0.6 0-1.1 0.1-0.4 0.1-0.7 0.3c-0.2 0-0.3 0.3-0.3 0.5v9.5c0 0.3-0.2 0.5-0.5 0.5q-0.2 0.1-0.4 0.1-0.6 0.1-1.4 0.1-1.4 0-2.1-0.5-0.6-0.5-0.6-1.9v-8.9q0-0.8 0.3-1.3 0.3-0.5 0.9-0.9 1-0.7 2.6-1.1 1.5-0.4 3.3-0.4 3.4 0 5.2 1.4 1.8 1.5 1.8 4.1v8.8c0 0.3-0.2 0.5-0.5 0.5q-0.2 0.1-0.4 0.1zm-16.5-0.8q-1.9 1.1-5.4 1.1-1.6 0-2.9-0.3-1.2-0.3-2.1-0.8-0.9-0.6-1.4-1.6-0.5-0.9-0.5-2.1 0-2 1.2-3.1 1.2-1.1 3.8-1.4l3.8-0.4v-0.2q0-0.9-0.7-1.2-0.8-0.4-2.2-0.4-1.1 0-2.2 0.2-0.8 0.2-1.6 0.5c-0.2 0.1-0.4 0-0.6-0.1q-0.2-0.3-0.3-0.6-0.3-0.5-0.3-1.1 0-0.8 0.4-1.2 0.3-0.5 1.1-0.8 0.9-0.3 2-0.5 1.2-0.1 2.2-0.1 1.6 0 2.9 0.3 1.4 0.3 2.3 1 0.9 0.6 1.4 1.7 0.5 1 0.5 2.4v6.6q0 0.8-0.4 1.2-0.4 0.5-1 0.9zm-3.4-5.3l-2.2 0.2q-0.8 0.1-1.3 0.4-0.5 0.3-0.5 0.8 0 0.6 0.4 1 0.5 0.4 1.6 0.4 0.5 0 1.1-0.1 0.6-0.1 0.9-0.3zm-10.9-7.8h-6.2v3.3h6.1c0.2 0 0.4 0.1 0.5 0.3q0.1 0.2 0.2 0.5 0.2 0.6 0.2 1.2 0 1.1-0.5 1.6-0.5 0.5-1.3 0.5h-5.2v5.8c0 0.3-0.2 0.6-0.4 0.6q-0.3 0-0.6 0.1-0.6 0.1-1.4 0.1-1.5 0-2.1-0.6-0.6-0.5-0.6-1.9v-12.9q0-1.3 0.7-2 0.7-0.8 2-0.8h9.5c0.3 0 0.4 0.1 0.5 0.4q0.1 0.2 0.2 0.5 0.2 0.5 0.2 1.1 0 1.2-0.5 1.7-0.5 0.5-1.3 0.5z"/>
	<path fill-rule="evenodd" class="b" d="m23.4 16.3c-6.6 3.5-15 4-20.5 10.1q0 0 0 0c-0.1 0.1-0.3 0.1-0.3-0.1q0 0 0 0-0.1-0.5-0.2-1c0-1.2 0.1-2.5 0.3-3.7 0.9-4.8 3.8-8.7 8-11.1q0 0 0 0c6.8-3.7 14.4-4 20.3-9q0 0 0 0 0.1 0 0.1 0 0 0 0 0 0-0.1 0.1 0 0.1 0 0.1 0.1 0 0 0 0 0.7 1.8 0.6 3.9c-0.5 5.5-3.2 8-8.5 10.8zm-17.9 11.3c5.6-4.9 13.7-5.5 19.6-8.9q1.5-0.8 2.7-1.7 0 0 0 0 0 0 0 0 0 0 0 0 0.1-0.1 0.2 0 0.1 0 0.1 0.1 0 0 0 0c0.4 1.2 0.6 2.4 0.6 3.8-0.2 3.1-1.9 5.8-4.4 7.3-3 1.8-7.5 3.1-10.8 4.5l-1.6-3.2c0-0.1-0.2-0.1-0.3 0l-1.6 3.3-3.7 0.5c-0.1 0-0.2 0.2-0.1 0.3l2.3 2.2 0.4 0.4-0.7 3.6c0 0.1 0.2 0.3 0.3 0.2l3.3-1.7 1 0.5 2.2 1.2c0.1 0.1 0.3-0.1 0.3-0.2l-0.6-3.6q0.5-0.5 1.1-1 1-0.8 2.2-1.2 1.5-0.6 3.1-0.7 0.1 0 0.1 0 0.1 0 0.1 0.1 0 0 0 0 0 0 0 0 0.1 0.1 0.1 0.3 0.2 1.4 0 2.9c-0.7 4.8-4.7 8.3-9.4 8.4q-0.2 0-0.4 0-0.6 0-1.3-0.1 0 0-0.1 0 0 0-0.1 0 0 0 0 0 0 0-0.1 0 0 0-0.1 0-0.1 0-0.1 0-0.1-0.1-0.2-0.1 0 0-0.1 0 0 0-0.1 0 0 0 0 0-0.1-0.1-0.1-0.1-0.1 0-0.1 0-0.2-0.1-0.5-0.1 0 0-0.1-0.1-0.1 0-0.2 0 0-0.1-0.1-0.1 0 0-0.1 0-0.1 0-0.2-0.1 0 0 0 0 0 0-0.1 0 0 0-0.1-0.1 0 0-0.1 0 0 0 0 0-1.6-0.8-2.8-2-0.3-0.2-0.5-0.5-0.5-0.6-0.9-1.2c-1.2-1.9-1.8-4.2-1.5-6.6q0.1-0.8 0.4-1.5c0.3-1 0.8-2 1.3-2.8 0.4-0.6 1.4-1.6 1.8-2z"/>
	<path fill-rule="evenodd" class="a" d="m162.8 25.2q-0.4 0.8-1.2 1.2-0.7 0.4-1.6 0.4-0.8 0-1.5-0.4-0.8-0.4-1.2-1.2-0.5-0.7-0.5-1.6 0-0.8 0.5-1.6 0.4-0.8 1.2-1.2 0.7-0.4 1.5-0.4 0.9 0 1.6 0.4 0.8 0.4 1.2 1.2 0.5 0.8 0.5 1.6 0 0.9-0.5 1.6zm-0.4-2.9q-0.4-0.7-1-1-0.7-0.4-1.4-0.4-0.6 0-1.3 0.4-0.6 0.3-1 1-0.3 0.6-0.3 1.3 0 0.7 0.3 1.4 0.4 0.6 1 0.9 0.7 0.4 1.3 0.4 0.7 0 1.4-0.4 0.6-0.3 1-0.9 0.3-0.7 0.3-1.4 0-0.7-0.3-1.3zm-1.3 2.2q0.2 0.7 0.3 0.9h-0.5c-0.1-0.1-0.2-0.4-0.3-0.8-0.1-0.5-0.3-0.7-0.7-0.7h-0.4v1.5h-0.5v-3.5c0.3 0 0.6-0.1 0.9-0.1 0.5 0 0.8 0.1 1.1 0.3 0.1 0.2 0.2 0.4 0.2 0.7 0 0.5-0.3 0.8-0.6 0.9q0.4 0.2 0.5 0.8zm-0.3-1.7c0-0.4-0.4-0.6-0.9-0.6q-0.3 0-0.4 0v1.3h0.5c0.5 0 0.8-0.2 0.8-0.7z"/>
</svg>
