<svg version="1.2" xmlns="http://www.w3.org/2000/svg" viewBox="0 0 263 48" width="263" height="48">
	<style>.a{fill:#ff352b}.b{fill:#5d2dcf}</style>
	<path class="a" d="m36.8 27.5v11.6c-0.1 1.1-1 1.9-2.1 1.6l-30.3-8.7 21.1-9.3 10.2 3.1c0.7 0.2 1.1 1 1.1 1.7z"/>
	<path class="b" d="m52.5 5.8l-11.2 13.1c-0.6 0.6-1.5 0.2-1.5-0.6v-0.9l-14.6 5.2-23.1 8.4q0 0 0 0h-0.2q-0.1 0.1-0.3 0.1 0 0-0.1 0c-0.7 0-1.3-0.6-1.4-1.3q0-0.1 0-0.2v-12c0-0.6 0.4-1.2 0.9-1.4q0.1 0 0.1 0l38.7-13.9v-1.1c0-0.7 0.7-1.1 1.3-0.8l11.2 4.1c0.5 0.3 0.6 0.9 0.2 1.3zm-15.6 21.5v12c0 0.6-0.4 1.1-0.9 1.3q-0.1 0.1-0.1 0.1l-13.2 4.4v1.1c0 0.7-0.7 1.1-1.3 0.7l-11.2-4.1c-0.5-0.3-0.6-0.9-0.2-1.3l11.2-13c0.5-0.6 1.5-0.3 1.5 0.5v1l12.2-4.1q0 0 0 0h0.2q0.2-0.1 0.4-0.1c0.8 0 1.4 0.7 1.4 1.5z"/>
	<path class="a" d="m183.2 16.3c0-2 1.6-3.6 3.6-3.6 2 0 3.6 1.6 3.6 3.6 0 2-1.6 3.6-3.6 3.6-2 0-3.6-1.6-3.6-3.6z"/>
	<path fill-rule="evenodd" class="b" d="m61.2 33.5v-7.2h-2c-0.4 0-0.7-0.3-0.7-0.7v-3.6c0-0.4 0.3-0.7 0.7-0.7h2v-3.8c0-0.4 0.3-0.7 0.7-0.7h4.8c0.4 0 0.7 0.3 0.7 0.7v3.8h3.5c0.4 0 0.7 0.3 0.7 0.7v3.6c0 0.4-0.3 0.7-0.7 0.7h-3.5v6c0 1.3 0.6 1.8 1.7 1.8q0.8 0 1.5-0.2c0.5-0.2 0.9 0.2 0.9 0.7v3.3c0 0.3-0.1 0.6-0.4 0.7-1.1 0.5-2.4 0.8-3.9 0.8-3.8 0-6-1.6-6-5.9zm13.8-12.2h4.8c0.4 0 0.7 0.3 0.7 0.7v2.9c1-2.3 2.5-3.9 5.1-3.9 0.3 0 0.6 0.2 0.6 0.5v5.5c0 0.3-0.3 0.5-0.5 0.5-3.3 0-5.2 1.9-5.2 6v4.6c0 0.5-0.4 0.9-0.9 0.9h-4.4c-0.5 0-0.9-0.4-0.9-0.9v-16.1c0-0.4 0.3-0.7 0.7-0.7zm11.7 12.7v-0.1c0-3.7 2.8-5.6 7-5.6 1.6 0 3.2 0.3 4.2 0.7v-0.3c0-1.8-1.1-2.9-3.5-2.9-1.5 0-2.8 0.2-4 0.7-0.5 0.1-1.1-0.2-1.2-0.7l-0.8-2.6c-0.1-0.5 0.1-1 0.6-1.1 1.8-0.7 3.7-1.1 6.4-1.1 3.2 0 5.4 0.8 6.8 2.2 1.3 1.3 1.9 3.1 1.9 5.6v9.3c0 0.5-0.4 0.9-0.9 0.9h-4.4c-0.5 0-0.9-0.4-0.9-0.9v-0.9c-1.2 1.4-2.9 2.2-5.2 2.2-3.4 0-6-1.9-6-5.4zm11.3-1.4v-0.8c-0.6-0.3-1.5-0.5-2.4-0.5-1.8 0-2.9 0.9-2.9 2.2v0.1c0 1.2 0.9 1.9 2.2 1.9 1.8 0 3.1-1.1 3.1-2.9zm10.2-11.3h4.4c0.5 0 1 0.4 1 0.9v1.6c1.1-1.5 2.8-2.9 5.3-2.9 3.8 0 6.1 2.5 6.1 6.5v10.7c0 0.5-0.5 0.9-1 0.9h-4.4c-0.5 0-0.9-0.4-0.9-0.9v-8.7c0-1.9-1-3-2.5-3-1.5 0-2.6 1.1-2.6 3v8.7c0 0.5-0.5 0.9-1 0.9h-4.4c-0.5 0-0.9-0.4-0.9-0.9v-15.9c0-0.5 0.4-0.9 0.9-0.9zm19.3 14.4l1-1.6c0.4-0.6 1.1-0.8 1.7-0.4 1.8 0.9 3.6 1.4 5.1 1.4 1.1 0 1.6-0.4 1.6-1 0-0.7-1-1-2.9-1.6-3.5-0.9-6.3-2.1-6.3-5.6v-0.1c0-3.8 3-5.9 7.1-5.9 2.2 0 4.4 0.5 6.2 1.4 0.7 0.3 0.9 1.2 0.6 1.8l-1 1.7c-0.3 0.6-1 0.9-1.6 0.6-1.5-0.7-3.1-1.1-4.2-1.1-1 0-1.5 0.3-1.5 0.8v0.1c0 0.7 1 1 2.9 1.6 3.6 1 6.4 2.2 6.4 5.6v0.1c0 3.9-3 5.9-7.3 5.9-2.6 0-5.1-0.6-7.4-1.9-0.6-0.3-0.8-1.1-0.4-1.8zm16.7-1.7v-0.1c0-3.7 2.8-5.6 7-5.6 1.7 0 3.3 0.3 4.3 0.7v-0.3c0-1.8-1.2-2.9-3.6-2.9-1.5 0-2.7 0.2-4 0.7-0.5 0.1-1-0.2-1.1-0.7l-0.8-2.6c-0.2-0.5 0.1-1 0.6-1.1 1.7-0.7 3.7-1.1 6.4-1.1 3.2 0 5.3 0.8 6.7 2.2 1.4 1.3 2 3.1 2 5.6v9.3c0 0.5-0.5 0.9-1 0.9h-4.3c-0.5 0-0.9-0.4-0.9-0.9v-0.9c-1.3 1.4-2.9 2.2-5.3 2.2-3.4 0-6-1.9-6-5.4zm11.4-1.4v-0.8c-0.7-0.3-1.6-0.5-2.5-0.5-1.8 0-2.8 0.9-2.8 2.2v0.1c0 1.2 0.9 1.9 2.2 1.9 1.8 0 3.1-1.1 3.1-2.9zm8.5-2.4c0-5.1 4-9.3 9.6-9.3 3.1 0 5.3 1.1 6.8 2.9 0.5 0.6 0.4 1.4-0.2 1.8l-2.3 1.7c-0.5 0.4-1.2 0.3-1.7-0.1-0.7-0.7-1.5-1-2.6-1-2 0-3.5 1.7-3.5 3.9v0.1c0 2.3 1.5 4 3.6 4 1.1 0 1.9-0.4 2.7-1.1 0.4-0.4 1.1-0.4 1.6-0.1l2.2 1.6c0.6 0.5 0.7 1.3 0.2 1.9-1.6 1.8-3.8 3-7 3-5.4 0-9.4-4.2-9.4-9.3zm20.9-8.9h3.7c0.7 0 1.3 0.5 1.3 1.3v15.2c0 0.7-0.6 1.2-1.3 1.2h-3.7c-0.7 0-1.3-0.5-1.3-1.2v-15.2c0-0.8 0.6-1.3 1.3-1.3zm7.8 8.9c0-5.1 4.1-9.3 9.8-9.3 5.7 0 9.9 4.1 9.9 9.2v0.1c0 5-4.2 9.3-9.9 9.3-5.7 0-9.8-4.2-9.8-9.3zm13.6 0c0-2.2-1.6-4-3.8-4-2.3 0-3.7 1.8-3.7 3.9v0.1c0 2.1 1.5 4 3.7 4 2.3 0 3.8-1.8 3.8-4zm9.6-8.9h4.4c0.5 0 1 0.4 1 0.9v1.6c1.1-1.5 2.8-2.9 5.3-2.9 3.8 0 6.1 2.5 6.1 6.5v10.7c0 0.5-0.5 0.9-1 0.9h-4.4c-0.5 0-0.9-0.4-0.9-0.9v-8.7c0-1.9-1-3-2.5-3-1.5 0-2.6 1.1-2.6 3v8.7c0 0.5-0.5 0.9-1 0.9h-4.4c-0.5 0-0.9-0.4-0.9-0.9v-15.9c0-0.5 0.4-0.9 0.9-0.9zm19.1 12.7v-0.1c0-3.7 2.8-5.6 7-5.6 1.6 0 3.2 0.3 4.3 0.7v-0.3c0-1.8-1.2-2.9-3.6-2.9-1.5 0-2.7 0.2-4 0.7-0.5 0.1-1-0.2-1.2-0.7l-0.7-2.6c-0.2-0.5 0.1-1 0.5-1.1 1.8-0.7 3.8-1.1 6.4-1.1 3.2 0 5.4 0.8 6.8 2.2 1.4 1.3 1.9 3.1 1.9 5.6v9.3c0 0.5-0.4 0.9-0.9 0.9h-4.3c-0.5 0-1-0.4-1-0.9v-0.9c-1.2 1.4-2.9 2.2-5.2 2.2-3.4 0-6-1.9-6-5.4zm11.3-1.4v-0.8c-0.6-0.3-1.5-0.5-2.4-0.5-1.8 0-2.9 0.9-2.9 2.2v0.1c0 1.2 1 1.9 2.2 1.9 1.8 0 3.1-1.1 3.1-2.9zm7-9.1c0-2.1 1.7-3.9 3.9-3.9 2.1 0 3.8 1.8 3.8 3.9 0 2.1-1.7 3.9-3.9 3.9-2.1 0-3.8-1.8-3.8-3.9zm7.3 0c0-1.9-1.5-3.5-3.4-3.5-2 0-3.5 1.6-3.5 3.5 0 1.9 1.5 3.5 3.4 3.5 2 0 3.5-1.6 3.5-3.5zm-5.2-2.2h2c0.6 0 1.1 0.2 1.4 0.5q0.3 0.3 0.3 0.9v0.1c0 0.6-0.3 1-0.8 1.2l0.9 1.4h-1.3l-0.8-1.2h-0.5v1.2h-1.2zm1.9 2c0.4 0 0.7-0.2 0.7-0.5 0-0.3-0.3-0.5-0.7-0.5h-0.7v1z"/>
</svg>
